<svg version="1.1" id="Layer_1" xmlns="http://www.w3.org/2000/svg" xmlns:xlink="http://www.w3.org/1999/xlink" x="0px" y="0px"
	 width="100%" viewBox="0 0 1454 1454" enable-background="new 0 0 1454 1454" xml:space="preserve">
<path fill="#C09A5A" opacity="1.000000" stroke="none" 
	d="
M1.000000,532.000000 
	C1.000000,354.666687 1.000000,177.833389 1.000000,1.000071 
	C485.666534,1.000047 970.333069,1.000047 1454.999756,1.000024 
	C1454.999756,485.666473 1454.999756,970.332947 1454.999878,1454.999512 
	C970.333618,1454.999756 485.667236,1454.999756 1.000438,1454.999878 
	C1.000000,1147.500000 1.000000,840.000000 1.000000,532.000000 
M5.166037,939.500000 
	C5.166037,1109.762695 5.166037,1280.025391 5.166037,1450.381836 
	C487.414978,1450.381836 968.938660,1450.381836 1450.470947,1450.381836 
	C1450.470947,968.523560 1450.470947,487.117767 1450.470947,5.618294 
	C968.583435,5.618294 487.059235,5.618294 5.578566,5.618294 
	C5.399984,6.546929 5.224953,7.032050 5.224910,7.517187 
	C5.197511,317.844788 5.181865,628.172424 5.166037,939.500000 
z"/>
<path fill="#FFFFFF" opacity="1.000000" stroke="none" 
	d="
M5.166067,939.000000 
	C5.181865,628.172424 5.197511,317.844788 5.224910,7.517187 
	C5.224953,7.032050 5.399984,6.546929 5.578566,5.618294 
	C487.059235,5.618294 968.583435,5.618294 1450.470947,5.618294 
	C1450.470947,487.117767 1450.470947,968.523560 1450.470947,1450.381836 
	C968.938660,1450.381836 487.414978,1450.381836 5.166037,1450.381836 
	C5.166037,1280.025391 5.166037,1109.762695 5.166067,939.000000 
M556.598694,862.628113 
	C556.294983,864.557373 555.991272,866.486633 555.596985,868.990967 
	C553.656677,868.990967 551.872559,868.990845 550.088440,868.991028 
	C539.607178,868.992188 529.125427,868.937561 518.644775,869.015869 
	C512.587341,869.061157 507.841675,872.711792 507.585541,877.645935 
	C507.469482,879.881226 507.037628,882.980652 511.081726,882.568176 
	C512.019165,875.253113 513.434753,874.034668 521.009583,874.013672 
	C528.662537,873.992432 536.315552,874.008057 543.968567,874.007690 
	C547.886963,874.007446 551.805298,874.007690 554.830444,874.007690 
	C556.155029,876.970947 557.022156,878.910767 557.889282,880.850586 
	C559.042480,878.831299 560.195679,876.812012 561.797607,874.006958 
	C564.046997,874.006958 567.200256,874.265259 570.279297,873.899231 
	C571.844788,873.713135 573.276733,872.403442 574.769104,871.601746 
	C573.345459,870.732483 571.990051,869.291931 570.484009,869.111755 
	C567.263550,868.726685 563.965088,868.993835 560.780029,868.993835 
	C560.248413,866.172546 559.856201,864.091370 559.753967,861.231079 
	C563.805969,853.394226 557.578796,849.198059 553.019104,843.896729 
	C555.697693,843.500366 557.749512,843.196838 559.804077,842.892822 
	C561.045959,839.048157 559.472595,838.052673 555.995544,838.078613 
	C541.875427,838.184082 527.753113,838.044556 513.634583,838.227783 
	C512.145813,838.247070 510.676880,839.796265 509.198730,840.635681 
	C510.618378,841.526123 512.012634,843.135254 513.461975,843.186401 
	C520.928528,843.450073 528.409485,843.276184 535.884949,843.326599 
	C546.772827,843.400085 553.121460,848.478088 555.718079,858.977966 
	C555.982910,860.048767 556.781860,860.987549 556.598694,862.628113 
M498.280731,174.737823 
	C484.292725,174.737823 470.304718,174.737823 455.130493,174.737823 
	C464.542206,185.610001 473.015350,195.397949 481.839600,205.682388 
	C482.237000,205.458694 482.634399,205.235001 483.559906,204.588531 
	C485.988983,200.070847 488.497742,195.593811 490.826752,191.025116 
	C493.659210,185.468765 496.340210,179.835205 499.612976,173.674698 
	C500.070862,173.829727 500.528748,173.984756 501.805023,174.014969 
	C502.645721,175.741821 503.254639,177.636276 504.363281,179.169342 
	C514.596985,193.320709 524.921265,207.406555 535.202942,221.523315 
	C535.929199,222.520477 536.526306,223.611725 537.693542,225.472153 
	C524.801697,225.472153 512.767822,225.472153 499.524292,225.472153 
	C512.954163,241.184616 525.573914,255.949249 538.400513,270.955902 
	C551.335327,255.730972 563.770264,241.094376 577.180908,225.309357 
	C563.821045,225.309357 551.867126,225.309357 539.058167,225.309357 
	C540.700806,222.904083 541.667725,221.406403 542.715149,219.967316 
	C552.698120,206.251068 562.716736,192.560654 572.653625,178.811188 
	C573.657715,177.421814 574.192566,175.693329 575.286438,173.357513 
	C575.730652,173.668823 576.174805,173.980133 577.295044,174.644104 
	C582.589294,184.745758 587.883545,194.847412 593.601440,205.850006 
	C593.620789,206.501678 593.929810,207.400925 593.616089,207.767990 
	C588.707397,213.511169 583.718445,219.185699 578.136597,225.575867 
	C587.070374,225.575867 594.897583,225.575867 603.643677,225.575867 
	C600.071045,218.894394 596.782288,212.743729 593.436157,206.485748 
	C593.727539,206.233536 594.416504,205.637222 595.684265,204.720734 
	C603.937683,195.011185 612.191040,185.301636 621.096069,174.825424 
	C618.031677,174.825424 615.907654,174.845413 613.784180,174.822128 
	C601.350159,174.685806 588.916382,174.539352 576.986877,173.714325 
	C584.750671,163.054749 592.514465,152.395157 600.527710,141.393112 
	C586.148804,141.393112 572.665955,141.393112 558.623962,141.393112 
	C563.780273,150.992508 568.688721,160.022614 573.462952,169.123184 
	C574.273865,170.668930 574.508179,172.517136 574.188965,174.721878 
	C550.147705,174.788559 526.106445,174.858444 502.065186,174.893845 
	C501.672272,174.894424 501.278778,174.474091 500.712860,173.469498 
	C506.298737,162.814697 511.884583,152.159897 517.505859,141.437561 
	C503.546051,141.437561 490.101349,141.437561 476.433868,141.437561 
	C476.820984,142.175186 476.940063,142.492096 477.132446,142.755478 
	C483.594360,151.603394 490.096130,160.422577 496.499756,169.312469 
	C497.604248,170.845825 498.296173,172.676392 498.280731,174.737823 
M778.180969,279.691193 
	C792.567810,263.851746 808.458984,249.680435 825.639648,236.944901 
	C869.842224,204.178787 919.789978,184.879623 973.303955,173.904816 
	C1020.871887,164.149429 1069.012573,161.498306 1117.425537,162.076141 
	C1124.779907,162.163925 1132.136108,162.088379 1139.491455,162.088379 
	C1137.609375,160.358337 1135.618530,159.720718 1133.582886,159.299194 
	C1100.039185,152.353683 1066.217773,148.762817 1031.887573,149.760269 
	C993.496094,150.875748 955.823730,156.392059 919.535217,168.913559 
	C813.436890,205.523209 736.905212,275.752258 688.130310,376.206512 
	C656.068359,442.239685 641.488220,512.795532 639.612061,585.877747 
	C638.762268,618.981079 639.852173,652.161743 640.913269,685.280090 
	C642.561401,736.714233 644.578674,788.142700 647.117004,839.540100 
	C649.145813,880.619751 652.368469,921.639038 654.722717,962.704468 
	C657.153320,1005.102295 659.497131,1047.510132 661.266357,1089.939087 
	C662.514099,1119.860840 664.997742,1149.845947 661.011719,1179.758057 
	C656.939636,1210.315186 648.367432,1239.347046 630.932922,1265.207031 
	C616.685486,1286.339600 598.030762,1303.133789 577.991882,1318.532593 
	C548.822083,1340.948242 516.860352,1346.086182 482.409790,1333.181763 
	C468.079376,1327.813965 454.189514,1321.270386 440.097473,1315.265625 
	C437.618896,1314.209351 435.131531,1313.173584 432.648193,1312.128418 
	C432.834076,1313.949341 433.510620,1314.845581 434.278778,1315.654663 
	C465.130554,1348.151001 503.657196,1359.316040 546.426270,1350.988037 
	C598.598267,1340.829224 637.500000,1310.886719 659.955750,1262.116821 
	C683.915833,1210.079712 689.543884,1154.520874 687.205261,1098.056885 
	C686.000549,1068.970703 682.437134,1039.986450 680.145142,1010.939941 
	C676.568726,965.617126 672.374634,920.323608 669.906860,874.938049 
	C667.258179,826.224365 665.296814,777.426697 664.906616,728.650696 
	C664.559021,685.207214 665.820862,641.692627 668.144714,598.304321 
	C670.039490,562.926758 673.011108,527.460266 678.216980,492.436310 
	C690.172180,412.003998 723.183411,340.942108 778.180969,279.691193 
M799.319153,413.812042 
	C781.576904,440.700989 771.073914,470.948029 758.549866,500.376007 
	C759.946045,500.545746 760.725220,500.354584 761.387634,499.964844 
	C769.133057,495.408112 776.576477,490.230255 784.644714,486.349518 
	C812.972595,472.724121 842.911133,471.222168 873.010803,477.763702 
	C892.459229,481.990448 911.409668,488.615936 930.450745,494.588928 
	C981.941833,510.741058 1033.874878,514.636169 1086.553955,500.952057 
	C1132.614746,488.987152 1173.239502,466.238434 1210.963745,437.878510 
	C1214.612793,435.135284 1217.069824,430.806519 1220.080200,427.213776 
	C1219.758911,426.840790 1219.437500,426.467834 1219.116089,426.094849 
	C1218.082764,426.311157 1216.949585,426.325073 1216.032593,426.777313 
	C1210.805420,429.355133 1205.650269,432.078705 1200.432983,434.677216 
	C1172.414551,448.631989 1144.869141,463.666931 1116.242920,476.239746 
	C1075.904907,493.956573 1033.262329,499.919952 989.627991,492.881561 
	C966.684937,489.180786 944.122192,482.951447 921.527710,477.303955 
	C893.874756,470.392120 866.357727,463.033875 837.468811,463.972870 
	C813.595642,464.748840 791.341675,470.302795 772.181152,485.392853 
	C771.391724,486.014587 770.363220,486.332764 769.185303,486.923065 
	C769.129578,485.906342 768.973389,485.388977 769.102478,484.956909 
	C769.434753,483.844482 769.860291,482.755951 770.306396,481.681946 
	C792.409424,428.472992 829.001831,389.209686 881.471069,364.661499 
	C943.447693,335.665253 1008.275024,317.164764 1076.345215,310.339325 
	C1103.596802,307.606781 1130.867432,308.068115 1158.101807,311.603790 
	C1182.854126,314.817230 1206.607056,321.835175 1230.293579,329.267120 
	C1231.995361,329.801117 1233.818481,329.948608 1236.096069,330.370422 
	C1235.562622,329.146179 1235.515869,328.741241 1235.292725,328.578888 
	C1234.354980,327.896576 1233.353271,327.303009 1232.394897,326.647827 
	C1215.081665,314.812225 1195.672241,307.992889 1175.548950,302.878479 
	C1134.419556,292.425323 1092.806885,292.124634 1050.997559,297.251221 
	C986.763184,305.127563 926.258911,324.578308 869.813660,356.367889 
	C843.235474,371.336487 818.063232,388.071350 799.319153,413.812042 
M881.752869,530.832397 
	C859.957458,524.975525 836.230103,524.736755 826.932495,530.567749 
	C833.610291,531.232361 840.050964,531.129456 846.105713,532.607727 
	C869.539124,538.328735 893.337219,543.120667 916.110718,550.870300 
	C974.884338,570.870667 1033.714233,573.346863 1093.437988,556.071838 
	C1119.846924,548.432983 1144.027832,537.337952 1162.315308,515.941467 
	C1163.398193,514.674377 1164.413086,513.349243 1165.459595,512.051147 
	C1158.035767,514.729126 1151.307861,517.986450 1144.663086,521.405396 
	C1085.323486,551.936462 1022.590332,559.368164 957.159546,549.426453 
	C931.695068,545.557312 907.146790,538.261719 881.752869,530.832397 
M554.242371,772.309387 
	C556.336426,771.596069 560.064514,771.168152 560.247314,770.121094 
	C561.133179,765.048218 555.680725,768.532410 554.058105,766.330627 
	C568.061951,755.106934 563.232300,734.532410 547.457825,729.624817 
	C539.594421,727.178406 531.691223,727.090271 523.963989,730.057312 
	C509.129395,735.753296 505.523346,753.477905 516.819519,764.661804 
	C517.336731,765.173828 517.759583,765.781128 518.753113,766.979187 
	C515.762024,766.979187 513.629028,767.008545 511.497070,766.973877 
	C503.354065,766.841553 497.743622,762.325989 496.189514,754.680237 
	C494.300629,745.387329 497.884918,736.273926 505.111023,733.429504 
	C508.191315,732.217041 508.417450,730.823181 506.930328,727.111816 
	C503.764648,728.971924 500.434601,730.185364 498.107391,732.435791 
	C491.230286,739.085999 490.410919,747.609619 491.979828,756.515198 
	C493.706177,766.314453 500.451935,771.921265 510.406128,772.009827 
	C524.714294,772.137146 539.022888,772.211243 554.242371,772.309387 
M555.523071,1084.083984 
	C564.160706,1075.087402 563.250366,1065.926514 552.574463,1054.552734 
	C564.235535,1046.411499 563.411072,1036.744019 554.929871,1025.880859 
	C559.317932,1025.590942 561.073059,1024.072876 559.255859,1020.381470 
	C557.776794,1020.289429 556.461609,1020.137207 555.146362,1020.136475 
	C540.813721,1020.128235 526.481079,1020.145081 512.148438,1020.152222 
	C508.448456,1020.154053 508.673737,1022.287659 509.670837,1025.301270 
	C519.243896,1025.301270 528.900452,1025.026611 538.527832,1025.436646 
	C542.375000,1025.600464 546.484619,1026.641113 549.897461,1028.401733 
	C555.770081,1031.431274 558.335510,1037.847900 556.728210,1043.097046 
	C555.174683,1048.170898 550.623413,1050.947266 543.639099,1050.971313 
	C533.639587,1051.005859 523.638123,1050.886353 513.642456,1051.084473 
	C512.102173,1051.114990 509.456818,1052.276978 509.265991,1053.283936 
	C508.580231,1056.902466 511.725159,1055.956665 513.636169,1055.975830 
	C523.134827,1056.070801 532.641235,1055.820312 542.132446,1056.106567 
	C550.590576,1056.361572 557.421936,1063.806519 557.093567,1071.804932 
	C556.806519,1078.796265 551.273560,1082.944336 542.146545,1082.977295 
	C536.313538,1082.998291 530.480408,1082.981689 524.647339,1082.981812 
	C519.549194,1082.981934 514.450989,1082.981812 508.956940,1082.981812 
	C509.148712,1084.893066 509.287537,1086.276855 509.448547,1087.881592 
	C522.320007,1087.881592 534.801147,1088.064941 547.268555,1087.731934 
	C549.865540,1087.662720 552.411560,1085.683350 555.523071,1084.083984 
M518.488098,494.869019 
	C520.820496,494.869385 523.178772,495.091644 525.479797,494.823120 
	C530.039062,494.291138 531.643921,496.027222 531.455322,500.663483 
	C531.130493,508.646912 531.479919,516.655396 531.322693,524.648926 
	C531.242310,528.737122 532.630493,530.220764 537.021118,528.525330 
	C537.021118,518.785706 537.120483,508.983002 536.964539,499.184387 
	C536.913452,495.977753 537.916809,494.745270 541.221191,494.819427 
	C549.047302,494.995148 556.882385,494.987518 564.708923,494.821381 
	C567.932861,494.752960 569.089844,495.823792 569.037231,499.114380 
	C568.874756,509.274139 568.876953,519.440613 569.105835,529.597900 
	C569.137939,531.023254 570.570618,533.358887 571.742554,533.636292 
	C574.988831,534.404785 574.869324,531.696228 574.869263,529.480774 
	C574.868958,517.485779 574.880676,505.490784 574.842407,493.495880 
	C574.838928,492.399323 574.511353,491.303772 574.300842,490.001221 
	C546.446350,490.001221 518.867798,490.001221 491.326477,490.001221 
	C490.109192,493.419586 490.892456,494.958832 494.501160,494.902405 
	C502.162720,494.782562 509.827515,494.867737 518.488098,494.869019 
M558.574585,792.073608 
	C555.514832,789.773193 552.731812,786.819580 549.311340,785.370483 
	C546.359497,784.119934 544.643066,786.099121 545.482483,788.242920 
	C549.057556,790.441956 552.179993,791.526245 554.067383,793.688538 
	C558.745422,799.048218 558.010193,810.327881 553.173340,815.493042 
	C548.691284,820.279297 541.434204,818.834656 539.513916,812.654968 
	C538.681274,809.975708 538.405212,807.128113 537.771362,804.381226 
	C536.805725,800.196594 536.304138,795.788330 534.599365,791.918274 
	C532.112732,786.273315 527.774231,782.400452 520.973267,783.033325 
	C514.520996,783.633667 510.840668,787.862061 508.945709,793.537354 
	C505.971527,802.444824 507.468353,810.587830 514.352905,817.375122 
	C507.825928,821.688660 506.861298,824.611145 510.484772,828.835754 
	C513.750732,823.272522 514.173889,823.031006 521.115234,823.021179 
	C528.933655,823.010193 536.752014,823.021729 544.570435,823.019714 
	C554.362000,823.017212 559.603333,819.111694 560.596863,809.331055 
	C561.146606,803.918945 559.538696,798.287537 558.574585,792.073608 
M552.262512,1003.813599 
	C560.848328,997.634705 563.211304,989.111389 561.260986,979.158203 
	C559.339050,969.349792 552.700806,963.722839 543.409607,961.909668 
	C537.854309,960.825500 531.738770,960.794312 526.187927,961.883850 
	C514.633240,964.151733 508.076721,973.130981 508.122711,984.885254 
	C508.167236,996.263977 514.905212,1004.979492 526.105591,1007.593872 
	C534.974121,1009.663940 543.621582,1008.982910 552.262512,1003.813599 
M509.985046,570.246826 
	C512.055115,576.619873 516.104431,581.373779 522.289185,583.851074 
	C531.311462,587.464844 540.558899,587.532532 549.448059,583.502502 
	C562.848022,577.427612 567.000793,559.651001 557.999939,547.996948 
	C550.795044,538.668213 533.960144,535.506409 521.811035,541.200134 
	C511.485199,546.039429 507.044586,556.466248 509.985046,570.246826 
M512.448120,682.041260 
	C502.336334,700.418640 512.852539,718.874207 533.694824,719.275879 
	C536.188354,719.323975 538.706970,719.263184 541.179993,718.968018 
	C551.640625,717.720093 559.762573,710.726013 561.828979,701.328735 
	C564.150024,690.773376 560.263000,681.041748 551.600952,675.721069 
	C539.542053,668.313904 522.318481,670.863708 512.448120,682.041260 
M529.589050,120.984825 
	C526.102722,127.494179 522.616394,134.003540 518.909729,140.924316 
	C531.935791,140.924316 544.339905,140.924316 557.412170,140.924316 
	C550.969177,128.917465 544.779114,117.381851 538.151001,105.029953 
	C535.092957,110.739349 532.522095,115.539284 529.589050,120.984825 
M554.935486,942.120361 
	C552.461121,944.215393 550.269897,946.918762 547.434692,948.238647 
	C544.457703,949.624329 544.310059,951.133911 545.348022,953.831909 
	C551.688232,953.821777 555.935242,950.415344 558.998718,945.323059 
	C564.442688,936.273926 562.449097,924.382812 554.433289,917.104309 
	C544.422058,908.013977 527.955566,907.104858 516.994995,915.067261 
	C509.501404,920.510925 506.080444,927.806641 507.049377,937.095459 
	C508.029419,946.490967 515.781616,954.049011 523.798828,953.303345 
	C524.841431,950.492432 524.345947,948.936035 521.020752,947.890076 
	C515.398865,946.121826 512.551086,941.641052 511.979156,935.893677 
	C511.026978,926.325317 517.377869,918.147827 528.132812,915.629028 
	C537.081177,913.533386 545.426575,915.055786 552.000671,922.040100 
	C557.316528,927.687683 558.369385,934.253052 554.935486,942.120361 
M534.739258,637.103638 
	C542.337158,634.169434 549.918213,631.190491 557.541931,628.325012 
	C560.252380,627.306274 561.808044,625.991943 559.997314,622.673096 
	C558.289429,623.257812 556.724426,623.741028 555.197815,624.324585 
	C541.376038,629.608093 527.575012,634.946411 513.736938,640.187012 
	C508.154144,642.301270 496.609589,636.345154 494.812622,630.725891 
	C494.303345,629.133118 493.114563,627.757629 492.237427,626.282532 
	C491.756683,628.187805 490.497040,630.321960 490.974121,631.945862 
	C491.727295,634.509644 493.199249,637.245178 495.182953,638.969055 
	C497.752228,641.201843 500.976074,642.879822 504.173431,644.157959 
	C520.227539,650.575867 536.363159,656.789917 552.475037,663.063110 
	C554.904907,664.009155 557.360474,664.889282 559.815125,665.803955 
	C561.475098,662.304077 560.104919,660.887207 557.254883,659.815552 
	C547.607544,656.188232 538.021057,652.398560 528.418762,648.651855 
	C525.093140,647.354187 521.789246,646.000610 517.097473,644.120361 
	C523.661682,641.501953 528.838135,639.437195 534.739258,637.103638 
M556.071960,617.551270 
	C557.176025,618.536621 558.280151,619.521973 559.384216,620.507324 
	C560.101074,619.255920 561.472717,617.978638 561.424622,616.757385 
	C561.179504,610.544617 556.806885,606.917114 550.899231,603.008850 
	C553.847107,603.008850 555.380310,603.306702 556.722412,602.927856 
	C558.163696,602.520996 559.425415,601.478455 560.765503,600.713318 
	C559.382690,599.807251 558.010315,598.132690 556.615479,598.113770 
	C542.327759,597.920288 528.035583,597.930481 513.747437,598.106995 
	C512.468811,598.122742 511.209534,599.702454 509.941284,600.555786 
	C511.247192,601.372314 512.533569,602.856628 513.862244,602.895508 
	C521.665527,603.123535 529.480896,602.899841 537.287964,603.048828 
	C546.204712,603.218933 553.344666,608.574646 556.071960,617.551270 
M490.333405,216.133316 
	C487.851746,213.283737 485.370117,210.434143 482.496277,207.134216 
	C479.101593,213.558578 475.993713,219.440201 472.777161,225.527435 
	C481.559479,225.527435 489.553009,225.527435 498.223480,225.527435 
	C495.453400,222.219284 493.128662,219.443008 490.333405,216.133316 
M513.419250,890.982971 
	C507.102631,890.680847 509.313171,894.651001 509.623138,898.000977 
	C512.081848,898.000977 514.177551,898.000977 516.625977,898.000977 
	C516.233215,895.280090 518.796509,892.092346 513.419250,890.982971 
M430.564392,1311.469482 
	C430.564392,1311.469482 430.511444,1311.479004 430.564392,1311.469482 
z"/>
<path fill="#C0B08C" opacity="1.000000" stroke="none" 
	d="
M777.937683,279.949341 
	C723.183411,340.942108 690.172180,412.003998 678.216980,492.436310 
	C673.011108,527.460266 670.039490,562.926758 668.144714,598.304321 
	C665.820862,641.692627 664.559021,685.207214 664.906616,728.650696 
	C665.296814,777.426697 667.258179,826.224365 669.906860,874.938049 
	C672.374634,920.323608 676.568726,965.617126 680.145142,1010.939941 
	C682.437134,1039.986450 686.000549,1068.970703 687.205261,1098.056885 
	C689.543884,1154.520874 683.915833,1210.079712 659.955750,1262.116821 
	C637.500000,1310.886719 598.598267,1340.829224 546.426270,1350.988037 
	C503.657196,1359.316040 465.130554,1348.151001 434.278778,1315.654663 
	C433.510620,1314.845581 432.834076,1313.949341 432.648193,1312.128418 
	C435.131531,1313.173584 437.618896,1314.209351 440.097473,1315.265625 
	C454.189514,1321.270386 468.079376,1327.813965 482.409790,1333.181763 
	C516.860352,1346.086182 548.822083,1340.948242 577.991882,1318.532593 
	C598.030762,1303.133789 616.685486,1286.339600 630.932922,1265.207031 
	C648.367432,1239.347046 656.939636,1210.315186 661.011719,1179.758057 
	C664.997742,1149.845947 662.514099,1119.860840 661.266357,1089.939087 
	C659.497131,1047.510132 657.153320,1005.102295 654.722717,962.704468 
	C652.368469,921.639038 649.145813,880.619751 647.117004,839.540100 
	C644.578674,788.142700 642.561401,736.714233 640.913269,685.280090 
	C639.852173,652.161743 638.762268,618.981079 639.612061,585.877747 
	C641.488220,512.795532 656.068359,442.239685 688.130310,376.206512 
	C736.905212,275.752258 813.436890,205.523209 919.535217,168.913559 
	C955.823730,156.392059 993.496094,150.875748 1031.887573,149.760269 
	C1066.217773,148.762817 1100.039185,152.353683 1133.582886,159.299194 
	C1135.618530,159.720718 1137.609375,160.358337 1139.491455,162.088379 
	C1132.136108,162.088379 1124.779907,162.163925 1117.425537,162.076141 
	C1069.012573,161.498306 1020.871887,164.149429 973.303955,173.904816 
	C919.789978,184.879623 869.842224,204.178787 825.639648,236.944901 
	C808.458984,249.680435 792.567810,263.851746 777.937683,279.949341 
z"/>
<path fill="#C1B18D" opacity="1.000000" stroke="none" 
	d="
M799.532898,413.523621 
	C818.063232,388.071350 843.235474,371.336487 869.813660,356.367889 
	C926.258911,324.578308 986.763184,305.127563 1050.997559,297.251221 
	C1092.806885,292.124634 1134.419556,292.425323 1175.548950,302.878479 
	C1195.672241,307.992889 1215.081665,314.812225 1232.394897,326.647827 
	C1233.353271,327.303009 1234.354980,327.896576 1235.292725,328.578888 
	C1235.515869,328.741241 1235.562622,329.146179 1236.096069,330.370422 
	C1233.818481,329.948608 1231.995361,329.801117 1230.293579,329.267120 
	C1206.607056,321.835175 1182.854126,314.817230 1158.101807,311.603790 
	C1130.867432,308.068115 1103.596802,307.606781 1076.345215,310.339325 
	C1008.275024,317.164764 943.447693,335.665253 881.471069,364.661499 
	C829.001831,389.209686 792.409424,428.472992 770.306396,481.681946 
	C769.860291,482.755951 769.434753,483.844482 769.102478,484.956909 
	C768.973389,485.388977 769.129578,485.906342 769.185303,486.923065 
	C770.363220,486.332764 771.391724,486.014587 772.181152,485.392853 
	C791.341675,470.302795 813.595642,464.748840 837.468811,463.972870 
	C866.357727,463.033875 893.874756,470.392120 921.527710,477.303955 
	C944.122192,482.951447 966.684937,489.180786 989.627991,492.881561 
	C1033.262329,499.919952 1075.904907,493.956573 1116.242920,476.239746 
	C1144.869141,463.666931 1172.414551,448.631989 1200.432983,434.677216 
	C1205.650269,432.078705 1210.805420,429.355133 1216.032593,426.777313 
	C1216.949585,426.325073 1218.082764,426.311157 1219.116089,426.094849 
	C1219.437500,426.467834 1219.758911,426.840790 1220.080200,427.213776 
	C1217.069824,430.806519 1214.612793,435.135284 1210.963745,437.878510 
	C1173.239502,466.238434 1132.614746,488.987152 1086.553955,500.952057 
	C1033.874878,514.636169 981.941833,510.741058 930.450745,494.588928 
	C911.409668,488.615936 892.459229,481.990448 873.010803,477.763702 
	C842.911133,471.222168 812.972595,472.724121 784.644714,486.349518 
	C776.576477,490.230255 769.133057,495.408112 761.387634,499.964844 
	C760.725220,500.354584 759.946045,500.545746 758.549866,500.376007 
	C771.073914,470.948029 781.576904,440.700989 799.532898,413.523621 
z"/>
<path fill="#C1B18D" opacity="1.000000" stroke="none" 
	d="
M882.155334,530.914368 
	C907.146790,538.261719 931.695068,545.557312 957.159546,549.426453 
	C1022.590332,559.368164 1085.323486,551.936462 1144.663086,521.405396 
	C1151.307861,517.986450 1158.035767,514.729126 1165.459595,512.051147 
	C1164.413086,513.349243 1163.398193,514.674377 1162.315308,515.941467 
	C1144.027832,537.337952 1119.846924,548.432983 1093.437988,556.071838 
	C1033.714233,573.346863 974.884338,570.870667 916.110718,550.870300 
	C893.337219,543.120667 869.539124,538.328735 846.105713,532.607727 
	C840.050964,531.129456 833.610291,531.232361 826.932495,530.567749 
	C836.230103,524.736755 859.957458,524.975525 882.155334,530.914368 
z"/>
<path fill="#FF8205" opacity="1.000000" stroke="none" 
	d="
M500.885559,174.250183 
	C501.278778,174.474091 501.672272,174.894424 502.065186,174.893845 
	C526.106445,174.858444 550.147705,174.788559 574.594482,174.437881 
	C575.000061,174.153885 574.945190,174.122223 574.945190,174.122223 
	C574.192566,175.693329 573.657715,177.421814 572.653625,178.811188 
	C562.716736,192.560654 552.698120,206.251068 542.715149,219.967316 
	C541.667725,221.406403 540.700806,222.904083 539.058167,225.309357 
	C551.867126,225.309357 563.821045,225.309357 577.180908,225.309357 
	C563.770264,241.094376 551.335327,255.730972 538.400513,270.955902 
	C525.573914,255.949249 512.954163,241.184616 499.524292,225.472153 
	C512.767822,225.472153 524.801697,225.472153 537.693542,225.472153 
	C536.526306,223.611725 535.929199,222.520477 535.202942,221.523315 
	C524.921265,207.406555 514.596985,193.320709 504.363281,179.169342 
	C503.254639,177.636276 502.645721,175.741821 501.364716,174.097046 
	C500.924408,174.179108 500.885559,174.250168 500.885559,174.250183 
M538.390625,177.534805 
	C532.210632,178.422943 528.763367,181.324539 528.131470,186.522491 
	C527.558411,191.235138 529.256042,195.062073 533.483459,197.428467 
	C537.193298,199.505203 540.892700,199.052933 544.209534,196.508377 
	C547.730652,193.807068 548.807556,189.999893 547.958923,185.810776 
	C547.005188,181.102875 544.003540,178.274323 538.390625,177.534805 
z"/>
<path fill="#C2B28F" opacity="1.000000" stroke="none" 
	d="
M553.786865,772.308716 
	C539.022888,772.211243 524.714294,772.137146 510.406128,772.009827 
	C500.451935,771.921265 493.706177,766.314453 491.979828,756.515198 
	C490.410919,747.609619 491.230286,739.085999 498.107391,732.435791 
	C500.434601,730.185364 503.764648,728.971924 506.930328,727.111816 
	C508.417450,730.823181 508.191315,732.217041 505.111023,733.429504 
	C497.884918,736.273926 494.300629,745.387329 496.189514,754.680237 
	C497.743622,762.325989 503.354065,766.841553 511.497070,766.973877 
	C513.629028,767.008545 515.762024,766.979187 518.753113,766.979187 
	C517.759583,765.781128 517.336731,765.173828 516.819519,764.661804 
	C505.523346,753.477905 509.129395,735.753296 523.963989,730.057312 
	C531.691223,727.090271 539.594421,727.178406 547.457825,729.624817 
	C563.232300,734.532410 568.061951,755.106934 554.058105,766.330627 
	C555.680725,768.532410 561.133179,765.048218 560.247314,770.121094 
	C560.064514,771.168152 556.336426,771.596069 553.786865,772.308716 
M552.791870,761.323120 
	C560.713928,753.052979 560.026001,742.368652 550.680664,736.806763 
	C541.423767,731.297607 531.490051,731.235535 522.194702,736.590515 
	C511.547302,742.724365 511.588409,755.970337 521.831543,762.860718 
	C530.705261,768.829773 542.675903,768.410339 552.791870,761.323120 
z"/>
<path fill="#C2B28F" opacity="1.000000" stroke="none" 
	d="
M555.252075,1084.334106 
	C552.411560,1085.683350 549.865540,1087.662720 547.268555,1087.731934 
	C534.801147,1088.064941 522.320007,1087.881592 509.448547,1087.881592 
	C509.287537,1086.276855 509.148712,1084.893066 508.956940,1082.981812 
	C514.450989,1082.981812 519.549194,1082.981934 524.647339,1082.981812 
	C530.480408,1082.981689 536.313538,1082.998291 542.146545,1082.977295 
	C551.273560,1082.944336 556.806519,1078.796265 557.093567,1071.804932 
	C557.421936,1063.806519 550.590576,1056.361572 542.132446,1056.106567 
	C532.641235,1055.820312 523.134827,1056.070801 513.636169,1055.975830 
	C511.725159,1055.956665 508.580231,1056.902466 509.265991,1053.283936 
	C509.456818,1052.276978 512.102173,1051.114990 513.642456,1051.084473 
	C523.638123,1050.886353 533.639587,1051.005859 543.639099,1050.971313 
	C550.623413,1050.947266 555.174683,1048.170898 556.728210,1043.097046 
	C558.335510,1037.847900 555.770081,1031.431274 549.897461,1028.401733 
	C546.484619,1026.641113 542.375000,1025.600464 538.527832,1025.436646 
	C528.900452,1025.026611 519.243896,1025.301270 509.670837,1025.301270 
	C508.673737,1022.287659 508.448456,1020.154053 512.148438,1020.152222 
	C526.481079,1020.145081 540.813721,1020.128235 555.146362,1020.136475 
	C556.461609,1020.137207 557.776794,1020.289429 559.255859,1020.381470 
	C561.073059,1024.072876 559.317932,1025.590942 554.929871,1025.880859 
	C563.411072,1036.744019 564.235535,1046.411499 552.574463,1054.552734 
	C563.250366,1065.926514 564.160706,1075.087402 555.252075,1084.334106 
z"/>
<path fill="#C2B28F" opacity="1.000000" stroke="none" 
	d="
M517.989502,494.868927 
	C509.827515,494.867737 502.162720,494.782562 494.501160,494.902405 
	C490.892456,494.958832 490.109192,493.419586 491.326477,490.001221 
	C518.867798,490.001221 546.446350,490.001221 574.300842,490.001221 
	C574.511353,491.303772 574.838928,492.399323 574.842407,493.495880 
	C574.880676,505.490784 574.868958,517.485779 574.869263,529.480774 
	C574.869324,531.696228 574.988831,534.404785 571.742554,533.636292 
	C570.570618,533.358887 569.137939,531.023254 569.105835,529.597900 
	C568.876953,519.440613 568.874756,509.274139 569.037231,499.114380 
	C569.089844,495.823792 567.932861,494.752960 564.708923,494.821381 
	C556.882385,494.987518 549.047302,494.995148 541.221191,494.819427 
	C537.916809,494.745270 536.913452,495.977753 536.964539,499.184387 
	C537.120483,508.983002 537.021118,518.785706 537.021118,528.525330 
	C532.630493,530.220764 531.242310,528.737122 531.322693,524.648926 
	C531.479919,516.655396 531.130493,508.646912 531.455322,500.663483 
	C531.643921,496.027222 530.039062,494.291138 525.479797,494.823120 
	C523.178772,495.091644 520.820496,494.869385 517.989502,494.868927 
z"/>
<path fill="#C2B28F" opacity="1.000000" stroke="none" 
	d="
M558.739014,792.414307 
	C559.538696,798.287537 561.146606,803.918945 560.596863,809.331055 
	C559.603333,819.111694 554.362000,823.017212 544.570435,823.019714 
	C536.752014,823.021729 528.933655,823.010193 521.115234,823.021179 
	C514.173889,823.031006 513.750732,823.272522 510.484772,828.835754 
	C506.861298,824.611145 507.825928,821.688660 514.352905,817.375122 
	C507.468353,810.587830 505.971527,802.444824 508.945709,793.537354 
	C510.840668,787.862061 514.520996,783.633667 520.973267,783.033325 
	C527.774231,782.400452 532.112732,786.273315 534.599365,791.918274 
	C536.304138,795.788330 536.805725,800.196594 537.771362,804.381226 
	C538.405212,807.128113 538.681274,809.975708 539.513916,812.654968 
	C541.434204,818.834656 548.691284,820.279297 553.173340,815.493042 
	C558.010193,810.327881 558.745422,799.048218 554.067383,793.688538 
	C552.179993,791.526245 549.057556,790.441956 545.482483,788.242920 
	C544.643066,786.099121 546.359497,784.119934 549.311340,785.370483 
	C552.731812,786.819580 555.514832,789.773193 558.739014,792.414307 
M524.727112,788.477905 
	C517.996948,787.656982 513.166687,791.209961 511.925720,797.894226 
	C509.415955,811.412659 521.785767,821.370239 535.822388,817.359436 
	C534.945923,811.610168 534.057373,805.895447 533.207825,800.174988 
	C532.455566,795.109375 530.192261,791.094421 524.727112,788.477905 
z"/>
<path fill="#C3B491" opacity="1.000000" stroke="none" 
	d="
M551.956238,1004.005615 
	C543.621582,1008.982910 534.974121,1009.663940 526.105591,1007.593872 
	C514.905212,1004.979492 508.167236,996.263977 508.122711,984.885254 
	C508.076721,973.130981 514.633240,964.151733 526.187927,961.883850 
	C531.738770,960.794312 537.854309,960.825500 543.409607,961.909668 
	C552.700806,963.722839 559.339050,969.349792 561.260986,979.158203 
	C563.211304,989.111389 560.848328,997.634705 551.956238,1004.005615 
M556.185913,991.216858 
	C558.913818,980.940063 556.060730,973.008850 547.453796,968.763123 
	C538.912476,964.549744 530.028687,964.443970 521.565063,969.029541 
	C510.668976,974.932922 509.382904,989.891174 518.489136,998.328003 
	C526.333496,1005.595947 550.141968,1006.167603 556.185913,991.216858 
z"/>
<path fill="#C3B491" opacity="1.000000" stroke="none" 
	d="
M509.883606,569.845825 
	C507.044586,556.466248 511.485199,546.039429 521.811035,541.200134 
	C533.960144,535.506409 550.795044,538.668213 557.999939,547.996948 
	C567.000793,559.651001 562.848022,577.427612 549.448059,583.502502 
	C540.558899,587.532532 531.311462,587.464844 522.289185,583.851074 
	C516.104431,581.373779 512.055115,576.619873 509.883606,569.845825 
M527.536133,544.559631 
	C517.506348,548.008850 512.639648,554.485596 513.218750,563.613770 
	C513.780090,572.460754 519.708984,579.115662 529.359985,580.570251 
	C533.860657,581.248474 538.723206,581.083801 543.182434,580.153931 
	C552.566833,578.196899 557.986267,571.391663 558.058105,562.707336 
	C558.131897,553.775208 552.699036,546.662354 543.180298,544.704163 
	C538.410645,543.723022 533.302307,544.387817 527.536133,544.559631 
z"/>
<path fill="#C2B28F" opacity="1.000000" stroke="none" 
	d="
M512.663696,681.747375 
	C522.318481,670.863708 539.542053,668.313904 551.600952,675.721069 
	C560.263000,681.041748 564.150024,690.773376 561.828979,701.328735 
	C559.762573,710.726013 551.640625,717.720093 541.179993,718.968018 
	C538.706970,719.263184 536.188354,719.323975 533.694824,719.275879 
	C512.852539,718.874207 502.336334,700.418640 512.663696,681.747375 
M516.240662,684.896973 
	C509.026337,697.070129 514.034912,710.524353 527.704895,713.207947 
	C533.768066,714.398193 540.695007,713.551880 546.736938,711.864746 
	C553.650574,709.934265 557.373291,704.023315 557.865112,696.719666 
	C558.341858,689.638916 555.289246,684.184814 549.361694,680.272461 
	C541.868408,675.326660 523.869141,674.680542 516.240662,684.896973 
z"/>
<path fill="#FF8205" opacity="1.000000" stroke="none" 
	d="
M576.482483,174.396317 
	C588.916382,174.539352 601.350159,174.685806 613.784180,174.822128 
	C615.907654,174.845413 618.031677,174.825424 621.096069,174.825424 
	C612.191040,185.301636 603.937683,195.011185 595.073669,204.864655 
	C594.034668,204.988739 593.606201,204.968903 593.177795,204.949066 
	C587.883545,194.847412 582.589294,184.745758 576.923096,174.494171 
	C576.551086,174.344238 576.482483,174.396317 576.482483,174.396317 
z"/>
<path fill="#FF8205" opacity="1.000000" stroke="none" 
	d="
M529.770142,120.662018 
	C532.522095,115.539284 535.092957,110.739349 538.151001,105.029953 
	C544.779114,117.381851 550.969177,128.917465 557.412170,140.924316 
	C544.339905,140.924316 531.935791,140.924316 518.909729,140.924316 
	C522.616394,134.003540 526.102722,127.494179 529.770142,120.662018 
z"/>
<path fill="#FF8205" opacity="1.000000" stroke="none" 
	d="
M481.488495,205.185913 
	C473.015350,195.397949 464.542206,185.610001 455.130493,174.737823 
	C470.304718,174.737823 484.292725,174.737823 498.713806,174.515274 
	C499.146851,174.292725 499.086761,174.235062 499.086761,174.235062 
	C496.340210,179.835205 493.659210,185.468765 490.826752,191.025116 
	C488.497742,195.593811 485.988983,200.070847 482.909302,204.837311 
	C482.002014,205.119370 481.745270,205.152634 481.488495,205.185913 
z"/>
<path fill="#FF8205" opacity="1.000000" stroke="none" 
	d="
M576.585083,174.317841 
	C576.174805,173.980133 575.730652,173.668823 575.115845,173.739868 
	C574.945190,174.122223 575.000061,174.153885 575.004517,174.189758 
	C574.508179,172.517136 574.273865,170.668930 573.462952,169.123184 
	C568.688721,160.022614 563.780273,150.992508 558.623962,141.393112 
	C572.665955,141.393112 586.148804,141.393112 600.527710,141.393112 
	C592.514465,152.395157 584.750671,163.054749 576.734680,174.055328 
	C576.482483,174.396317 576.551086,174.344238 576.585083,174.317841 
z"/>
<path fill="#FF8205" opacity="1.000000" stroke="none" 
	d="
M499.162781,174.331207 
	C498.296173,172.676392 497.604248,170.845825 496.499756,169.312469 
	C490.096130,160.422577 483.594360,151.603394 477.132446,142.755478 
	C476.940063,142.492096 476.820984,142.175186 476.433868,141.437561 
	C490.101349,141.437561 503.546051,141.437561 517.505859,141.437561 
	C511.884583,152.159897 506.298737,162.814697 500.799194,173.859833 
	C500.885559,174.250168 500.924408,174.179108 500.955505,174.159439 
	C500.528748,173.984756 500.070862,173.829727 499.349854,173.954880 
	C499.086761,174.235062 499.146851,174.292725 499.162781,174.331207 
z"/>
<path fill="#C3B491" opacity="1.000000" stroke="none" 
	d="
M555.106445,941.770691 
	C558.369385,934.253052 557.316528,927.687683 552.000671,922.040100 
	C545.426575,915.055786 537.081177,913.533386 528.132812,915.629028 
	C517.377869,918.147827 511.026978,926.325317 511.979156,935.893677 
	C512.551086,941.641052 515.398865,946.121826 521.020752,947.890076 
	C524.345947,948.936035 524.841431,950.492432 523.798828,953.303345 
	C515.781616,954.049011 508.029419,946.490967 507.049377,937.095459 
	C506.080444,927.806641 509.501404,920.510925 516.994995,915.067261 
	C527.955566,907.104858 544.422058,908.013977 554.433289,917.104309 
	C562.449097,924.382812 564.442688,936.273926 558.998718,945.323059 
	C555.935242,950.415344 551.688232,953.821777 545.348022,953.831909 
	C544.310059,951.133911 544.457703,949.624329 547.434692,948.238647 
	C550.269897,946.918762 552.461121,944.215393 555.106445,941.770691 
z"/>
<path fill="#C3B491" opacity="1.000000" stroke="none" 
	d="
M534.376953,637.238037 
	C528.838135,639.437195 523.661682,641.501953 517.097473,644.120361 
	C521.789246,646.000610 525.093140,647.354187 528.418762,648.651855 
	C538.021057,652.398560 547.607544,656.188232 557.254883,659.815552 
	C560.104919,660.887207 561.475098,662.304077 559.815125,665.803955 
	C557.360474,664.889282 554.904907,664.009155 552.475037,663.063110 
	C536.363159,656.789917 520.227539,650.575867 504.173431,644.157959 
	C500.976074,642.879822 497.752228,641.201843 495.182953,638.969055 
	C493.199249,637.245178 491.727295,634.509644 490.974121,631.945862 
	C490.497040,630.321960 491.756683,628.187805 492.237427,626.282532 
	C493.114563,627.757629 494.303345,629.133118 494.812622,630.725891 
	C496.609589,636.345154 508.154144,642.301270 513.736938,640.187012 
	C527.575012,634.946411 541.376038,629.608093 555.197815,624.324585 
	C556.724426,623.741028 558.289429,623.257812 559.997314,622.673096 
	C561.808044,625.991943 560.252380,627.306274 557.541931,628.325012 
	C549.918213,631.190491 542.337158,634.169434 534.376953,637.238037 
z"/>
<path fill="#C3B491" opacity="1.000000" stroke="none" 
	d="
M557.333069,861.987549 
	C556.781860,860.987549 555.982910,860.048767 555.718079,858.977966 
	C553.121460,848.478088 546.772827,843.400085 535.884949,843.326599 
	C528.409485,843.276184 520.928528,843.450073 513.461975,843.186401 
	C512.012634,843.135254 510.618378,841.526123 509.198730,840.635681 
	C510.676880,839.796265 512.145813,838.247070 513.634583,838.227783 
	C527.753113,838.044556 541.875427,838.184082 555.995544,838.078613 
	C559.472595,838.052673 561.045959,839.048157 559.804077,842.892822 
	C557.749512,843.196838 555.697693,843.500366 553.019104,843.896729 
	C557.578796,849.198059 563.805969,853.394226 559.386597,861.628662 
	C558.457153,862.013367 557.895081,862.000427 557.333069,861.987549 
z"/>
<path fill="#C1B18D" opacity="1.000000" stroke="none" 
	d="
M556.965881,862.307861 
	C557.895081,862.000427 558.457153,862.013367 559.241577,862.018311 
	C559.856201,864.091370 560.248413,866.172546 560.780029,868.993835 
	C563.965088,868.993835 567.263550,868.726685 570.484009,869.111755 
	C571.990051,869.291931 573.345459,870.732483 574.769104,871.601746 
	C573.276733,872.403442 571.844788,873.713135 570.279297,873.899231 
	C567.200256,874.265259 564.046997,874.006958 561.797607,874.006958 
	C560.195679,876.812012 559.042480,878.831299 557.889282,880.850586 
	C557.022156,878.910767 556.155029,876.970947 554.830444,874.007690 
	C551.805298,874.007690 547.886963,874.007446 543.968567,874.007690 
	C536.315552,874.008057 528.662537,873.992432 521.009583,874.013672 
	C513.434753,874.034668 512.019165,875.253113 511.081726,882.568176 
	C507.037628,882.980652 507.469482,879.881226 507.585541,877.645935 
	C507.841675,872.711792 512.587341,869.061157 518.644775,869.015869 
	C529.125427,868.937561 539.607178,868.992188 550.088440,868.991028 
	C551.872559,868.990845 553.656677,868.990967 555.596985,868.990967 
	C555.991272,866.486633 556.294983,864.557373 556.965881,862.307861 
z"/>
<path fill="#C1B18D" opacity="1.000000" stroke="none" 
	d="
M556.028076,617.163818 
	C553.344666,608.574646 546.204712,603.218933 537.287964,603.048828 
	C529.480896,602.899841 521.665527,603.123535 513.862244,602.895508 
	C512.533569,602.856628 511.247192,601.372314 509.941284,600.555786 
	C511.209534,599.702454 512.468811,598.122742 513.747437,598.106995 
	C528.035583,597.930481 542.327759,597.920288 556.615479,598.113770 
	C558.010315,598.132690 559.382690,599.807251 560.765503,600.713318 
	C559.425415,601.478455 558.163696,602.520996 556.722412,602.927856 
	C555.380310,603.306702 553.847107,603.008850 550.899231,603.008850 
	C556.806885,606.917114 561.179504,610.544617 561.424622,616.757385 
	C561.472717,617.978638 560.101074,619.255920 559.384216,620.507324 
	C558.280151,619.521973 557.176025,618.536621 556.028076,617.163818 
z"/>
<path fill="#FF860D" opacity="1.000000" stroke="none" 
	d="
M593.389648,205.399536 
	C593.606201,204.968903 594.034668,204.988739 594.784302,205.024750 
	C594.416504,205.637222 593.727539,206.233536 593.436157,206.485748 
	C596.782288,212.743729 600.071045,218.894394 603.643677,225.575867 
	C594.897583,225.575867 587.070374,225.575867 578.136597,225.575867 
	C583.718445,219.185699 588.707397,213.511169 593.616089,207.767990 
	C593.929810,207.400925 593.620789,206.501678 593.389648,205.399536 
z"/>
<path fill="#FF860D" opacity="1.000000" stroke="none" 
	d="
M490.568665,216.400024 
	C493.128662,219.443008 495.453400,222.219284 498.223480,225.527435 
	C489.553009,225.527435 481.559479,225.527435 472.777161,225.527435 
	C475.993713,219.440201 479.101593,213.558578 482.496277,207.134216 
	C485.370117,210.434143 487.851746,213.283737 490.568665,216.400024 
z"/>
<path fill="#C3B491" opacity="1.000000" stroke="none" 
	d="
M513.851929,890.994019 
	C518.796509,892.092346 516.233215,895.280090 516.625977,898.000977 
	C514.177551,898.000977 512.081848,898.000977 509.623138,898.000977 
	C509.313171,894.651001 507.102631,890.680847 513.851929,890.994019 
z"/>
<path fill="#FF860D" opacity="1.000000" stroke="none" 
	d="
M481.664062,205.434143 
	C481.745270,205.152634 482.002014,205.119370 482.645264,205.048706 
	C482.634399,205.235001 482.237000,205.458694 481.664062,205.434143 
z"/>
<path fill="#C0B08C" opacity="1.000000" stroke="none" 
	d="
M430.537903,1311.474243 
	C430.511444,1311.479004 430.564392,1311.469482 430.537903,1311.474243 
z"/>
<path fill="#FEFEFE" opacity="1.000000" stroke="none" 
	d="
M538.766602,177.568512 
	C544.003540,178.274323 547.005188,181.102875 547.958923,185.810776 
	C548.807556,189.999893 547.730652,193.807068 544.209534,196.508377 
	C540.892700,199.052933 537.193298,199.505203 533.483459,197.428467 
	C529.256042,195.062073 527.558411,191.235138 528.131470,186.522491 
	C528.763367,181.324539 532.210632,178.422943 538.766602,177.568512 
M538.450623,194.267578 
	C542.441772,193.673950 544.617371,190.965225 543.734741,187.401413 
	C543.201843,185.249954 540.401184,182.353638 538.462036,182.228256 
	C536.562012,182.105438 533.370605,184.707657 532.689453,186.759125 
	C531.466736,190.441742 533.465149,193.395065 538.450623,194.267578 
z"/>
<path fill="#FEFEFE" opacity="1.000000" stroke="none" 
	d="
M552.512451,761.559326 
	C542.675903,768.410339 530.705261,768.829773 521.831543,762.860718 
	C511.588409,755.970337 511.547302,742.724365 522.194702,736.590515 
	C531.490051,731.235535 541.423767,731.297607 550.680664,736.806763 
	C560.026001,742.368652 560.713928,753.052979 552.512451,761.559326 
z"/>
<path fill="#FEFEFE" opacity="1.000000" stroke="none" 
	d="
M525.083618,788.619995 
	C530.192261,791.094421 532.455566,795.109375 533.207825,800.174988 
	C534.057373,805.895447 534.945923,811.610168 535.822388,817.359436 
	C521.785767,821.370239 509.415955,811.412659 511.925720,797.894226 
	C513.166687,791.209961 517.996948,787.656982 525.083618,788.619995 
z"/>
<path fill="#FEFEFE" opacity="1.000000" stroke="none" 
	d="
M556.050659,991.592651 
	C550.141968,1006.167603 526.333496,1005.595947 518.489136,998.328003 
	C509.382904,989.891174 510.668976,974.932922 521.565063,969.029541 
	C530.028687,964.443970 538.912476,964.549744 547.453796,968.763123 
	C556.060730,973.008850 558.913818,980.940063 556.050659,991.592651 
z"/>
<path fill="#FEFEFE" opacity="1.000000" stroke="none" 
	d="
M527.941650,544.433899 
	C533.302307,544.387817 538.410645,543.723022 543.180298,544.704163 
	C552.699036,546.662354 558.131897,553.775208 558.058105,562.707336 
	C557.986267,571.391663 552.566833,578.196899 543.182434,580.153931 
	C538.723206,581.083801 533.860657,581.248474 529.359985,580.570251 
	C519.708984,579.115662 513.780090,572.460754 513.218750,563.613770 
	C512.639648,554.485596 517.506348,548.008850 527.941650,544.433899 
z"/>
<path fill="#FEFEFE" opacity="1.000000" stroke="none" 
	d="
M516.468079,684.603210 
	C523.869141,674.680542 541.868408,675.326660 549.361694,680.272461 
	C555.289246,684.184814 558.341858,689.638916 557.865112,696.719666 
	C557.373291,704.023315 553.650574,709.934265 546.736938,711.864746 
	C540.695007,713.551880 533.768066,714.398193 527.704895,713.207947 
	C514.034912,710.524353 509.026337,697.070129 516.468079,684.603210 
z"/>
<path fill="#FF860D" opacity="1.000000" stroke="none" 
	d="
M538.044800,194.251129 
	C533.465149,193.395065 531.466736,190.441742 532.689453,186.759125 
	C533.370605,184.707657 536.562012,182.105438 538.462036,182.228256 
	C540.401184,182.353638 543.201843,185.249954 543.734741,187.401413 
	C544.617371,190.965225 542.441772,193.673950 538.044800,194.251129 
z"/>
</svg>